# xmcd
#
# Track frame offsets: 
#        150
#        19175
#        46272
#        64317
#        113210
#        138260
#        163557
#        189965
#        229647
#        246865
#        272872
#        305667
#
# Disc length: 4508 seconds
#
# Revision: 3
# Processed by: cddbd v1.5PL3 Copyright (c) Steve Scherf et al.
# Submitted via: ExactAudioCopy v0.90b4
#
DISCID=a2119a0c
DTITLE=Moe Koffman - Project [Canada CD]
DYEAR=2003
DGENRE=Jazz
TTITLE0=Jazz Etude
TTITLE1=Spring Nocturne
TTITLE2=The Mover
TTITLE3=Little Sunflower
TTITLE4=Growing Up
TTITLE5=For Jezz
TTITLE6=Red Top
TTITLE7=Moonshine
TTITLE8=Later
TTITLE9=A Flower For Amadeus
TTITLE10=All Night Long
TTITLE11=Cool Dude
EXTD=YEAR: 2000
EXTT0=
EXTT1=
EXTT2=
EXTT3=
EXTT4=
EXTT5=
EXTT6=
EXTT7=
EXTT8=
EXTT9=
EXTT10=
EXTT11=
PLAYORDER=
